<svg viewBox="0 0 800 420" xmlns="http://www.w3.org/2000/svg">
  <rect width="800" height="420" fill="#f7f4ee"/>

  <!-- Soft background -->
  <ellipse cx="600" cy="140" rx="240" ry="160" fill="#c8b870" opacity="0.11"/>
  <ellipse cx="160" cy="320" rx="160" ry="100" fill="#d8c890" opacity="0.12"/>

  <!-- Exponential growth curve area fill -->
  <path d="M80 380 C120 375 180 360 240 335 C310 305 380 265 460 220 C540 172 620 130 740 72 L740 380 Z" fill="#9a7228" opacity="0.06"/>

  <!-- Exponential growth curve -->
  <path d="M80 380 C120 375 180 360 240 335 C310 305 380 265 460 220 C540 172 620 130 740 72" fill="none" stroke="#9a7228" stroke-width="1.8" stroke-linecap="round" opacity="0.35"/>

  <!-- Wave 1: single origin dot -->
  <circle cx="90"  cy="368" r="5.5" fill="#9a7228" opacity="0.80"/>
  <circle cx="90"  cy="368" r="12"  fill="none" stroke="#9a7228" stroke-width="0.8" opacity="0.28"/>

  <!-- Wave 2: small cluster -->
  <line x1="90" y1="368" x2="165" y2="340" stroke="#9a7228" stroke-width="0.7" opacity="0.22"/>
  <line x1="90" y1="368" x2="175" y2="360" stroke="#9a7228" stroke-width="0.7" opacity="0.22"/>
  <circle cx="165" cy="340" r="4.5" fill="#9a7228" opacity="0.65"/>
  <circle cx="175" cy="360" r="4.5" fill="#9a7228" opacity="0.65"/>

  <!-- Wave 3: medium cluster -->
  <line x1="165" y1="340" x2="260" y2="305" stroke="#9a7228" stroke-width="0.7" opacity="0.20"/>
  <line x1="165" y1="340" x2="250" y2="325" stroke="#9a7228" stroke-width="0.7" opacity="0.20"/>
  <line x1="175" y1="360" x2="265" y2="330" stroke="#9a7228" stroke-width="0.7" opacity="0.20"/>
  <line x1="175" y1="360" x2="255" y2="348" stroke="#9a7228" stroke-width="0.7" opacity="0.20"/>
  <circle cx="260" cy="305" r="4"   fill="#9a7228" opacity="0.58"/>
  <circle cx="250" cy="325" r="4"   fill="#9a7228" opacity="0.58"/>
  <circle cx="265" cy="330" r="4"   fill="#9a7228" opacity="0.58"/>
  <circle cx="255" cy="348" r="4"   fill="#9a7228" opacity="0.58"/>

  <!-- Wave 4: expanding nodes -->
  <line x1="260" y1="305" x2="360" y2="258" stroke="#9a7228" stroke-width="0.6" opacity="0.18"/>
  <line x1="260" y1="305" x2="355" y2="272" stroke="#9a7228" stroke-width="0.6" opacity="0.18"/>
  <line x1="250" y1="325" x2="362" y2="280" stroke="#9a7228" stroke-width="0.6" opacity="0.18"/>
  <line x1="265" y1="330" x2="350" y2="295" stroke="#9a7228" stroke-width="0.6" opacity="0.18"/>
  <circle cx="360" cy="258" r="3.5" fill="#9a7228" opacity="0.52"/>
  <circle cx="355" cy="272" r="3.5" fill="#9a7228" opacity="0.52"/>
  <circle cx="362" cy="280" r="3.5" fill="#9a7228" opacity="0.52"/>
  <circle cx="350" cy="295" r="3.5" fill="#9a7228" opacity="0.52"/>
  <circle cx="370" cy="268" r="3.5" fill="#9a7228" opacity="0.48"/>
  <circle cx="345" cy="308" r="3.5" fill="#9a7228" opacity="0.48"/>

  <!-- Wave 5: denser spread -->
  <circle cx="455" cy="215" r="3"   fill="#9a7228" opacity="0.45"/>
  <circle cx="468" cy="228" r="3"   fill="#9a7228" opacity="0.45"/>
  <circle cx="448" cy="232" r="3"   fill="#9a7228" opacity="0.45"/>
  <circle cx="475" cy="210" r="3"   fill="#9a7228" opacity="0.42"/>
  <circle cx="462" cy="244" r="3"   fill="#9a7228" opacity="0.42"/>
  <circle cx="440" cy="220" r="3"   fill="#9a7228" opacity="0.42"/>
  <circle cx="480" cy="238" r="3"   fill="#9a7228" opacity="0.40"/>
  <circle cx="445" cy="248" r="3"   fill="#9a7228" opacity="0.40"/>

  <!-- Wave 6: dense cloud top right -->
  <circle cx="560" cy="168" r="2.5" fill="#9a7228" opacity="0.50"/>
  <circle cx="572" cy="158" r="2.5" fill="#9a7228" opacity="0.50"/>
  <circle cx="548" cy="178" r="2.5" fill="#9a7228" opacity="0.48"/>
  <circle cx="580" cy="172" r="2.5" fill="#9a7228" opacity="0.48"/>
  <circle cx="565" cy="185" r="2.5" fill="#9a7228" opacity="0.45"/>
  <circle cx="555" cy="155" r="2.5" fill="#9a7228" opacity="0.45"/>
  <circle cx="575" cy="188" r="2.5" fill="#9a7228" opacity="0.42"/>
  <circle cx="540" cy="165" r="2.5" fill="#9a7228" opacity="0.42"/>
  <circle cx="590" cy="162" r="2.5" fill="#9a7228" opacity="0.40"/>
  <circle cx="558" cy="195" r="2.5" fill="#9a7228" opacity="0.40"/>

  <!-- Large cluster top right corner (representing 6000) -->
  <circle cx="660" cy="118" r="2"   fill="#9a7228" opacity="0.55"/>
  <circle cx="672" cy="108" r="2"   fill="#9a7228" opacity="0.55"/>
  <circle cx="650" cy="128" r="2"   fill="#9a7228" opacity="0.52"/>
  <circle cx="680" cy="122" r="2"   fill="#9a7228" opacity="0.52"/>
  <circle cx="665" cy="135" r="2"   fill="#9a7228" opacity="0.50"/>
  <circle cx="645" cy="115" r="2"   fill="#9a7228" opacity="0.50"/>
  <circle cx="688" cy="112" r="2"   fill="#9a7228" opacity="0.48"/>
  <circle cx="655" cy="140" r="2"   fill="#9a7228" opacity="0.48"/>
  <circle cx="675" cy="138" r="2"   fill="#9a7228" opacity="0.45"/>
  <circle cx="640" cy="125" r="2"   fill="#9a7228" opacity="0.45"/>
  <circle cx="695" cy="125" r="2"   fill="#9a7228" opacity="0.42"/>
  <circle cx="660" cy="148" r="2"   fill="#9a7228" opacity="0.42"/>
  <circle cx="700" cy="108" r="2"   fill="#9a7228" opacity="0.55"/>
  <circle cx="715" cy="98"  r="2"   fill="#9a7228" opacity="0.55"/>
  <circle cx="705" cy="118" r="2"   fill="#9a7228" opacity="0.52"/>
  <circle cx="720" cy="112" r="2"   fill="#9a7228" opacity="0.52"/>
  <circle cx="710" cy="128" r="2"   fill="#9a7228" opacity="0.50"/>
  <circle cx="695" cy="138" r="2"   fill="#9a7228" opacity="0.48"/>
  <circle cx="725" cy="102" r="2.5" fill="#9a7228" opacity="0.62"/>
  <circle cx="725" cy="102" r="7"   fill="none" stroke="#9a7228" stroke-width="0.8" opacity="0.25"/>

  <!-- Label -->
  <text x="718" y="82" font-family="Jost,sans-serif" font-size="11" letter-spacing="1" fill="#9a7228" opacity="0.55" text-anchor="middle">6 000</text>
</svg>
